# Blender v2.92.0 OBJ File: 'temp_earth2.blend'
# www.blender.org
mtllib base.mtl
o Cube.044_Cube.020
v -0.673366 0.882217 -0.481419
v -0.688543 0.881779 -0.478857
v -0.686066 0.883958 -0.463816
v -0.670889 0.884396 -0.466379
v -0.633432 0.385496 -0.433756
v -0.650216 0.709063 -0.477862
v -0.642174 0.716138 -0.429023
v -0.625390 0.392570 -0.384917
v -0.674672 0.391148 -0.376596
v -0.691456 0.714716 -0.420701
v -0.699498 0.707641 -0.469541
v -0.682714 0.384074 -0.425435
vt 0.711505 0.586505
vt 0.788495 0.663495
vt 0.711505 0.663495
vt 0.538495 0.500000
vt 0.375000 0.750000
vt 0.375000 0.500000
vt 0.375000 0.000000
vt 0.538495 0.250000
vt 0.375000 0.250000
vt 0.125000 0.500000
vt 0.125000 0.750000
vt 0.788495 0.586505
vt 0.875000 0.750000
vt 0.625000 0.500000
vt 0.875000 0.500000
vt 0.538495 0.750000
vt 0.625000 0.750000
vt 0.375000 1.000000
vt 0.538495 0.000000
vt 0.538495 1.000000
vn -0.0513 0.9895 -0.1349
vn 0.9856 0.0284 -0.1664
vn -0.9856 -0.0284 0.1664
vn 0.0513 -0.9895 0.1349
vn -0.1608 -0.1415 -0.9768
vn -0.9859 0.0702 0.1522
vn -0.1651 -0.0423 -0.9854
vn -0.1652 -0.0423 -0.9854
vn 0.9756 0.1268 -0.1790
vn 0.1550 0.2393 0.9585
vn 0.1609 0.1415 0.9768
vn 0.1608 0.1415 0.9768
usemtl Material.051
s 1
f 1/1/1 3/2/1 4/3/1
f 6/4/2 8/5/2 5/6/2
f 9/7/3 11/8/3 12/9/3
f 12/10/4 8/5/4 9/11/4
f 12/9/5 6/4/5 5/6/5
f 2/12/6 10/13/6 3/2/6
f 2/12/7 6/14/7 11/15/8
f 1/1/9 7/16/9 6/4/9
f 3/2/10 7/17/10 4/3/10
f 7/16/11 9/18/12 8/5/12
f 1/1/1 2/12/1 3/2/1
f 6/4/2 7/16/2 8/5/2
f 9/7/3 10/19/3 11/8/3
f 12/10/4 5/6/4 8/5/4
f 12/9/5 11/8/5 6/4/5
f 2/12/6 11/15/6 10/13/6
f 2/12/7 1/1/7 6/14/7
f 1/1/9 4/3/9 7/16/9
f 3/2/10 10/13/10 7/17/10
f 7/16/11 10/20/11 9/18/12
