# Blender v2.92.0 OBJ File: 'temp_earth2.blend'
# www.blender.org
mtllib green-2.mtl
o Cylinder.003
v -0.673028 0.675044 -0.543715
v -0.674830 0.704971 -0.544790
v -0.655358 0.706212 -0.542890
v -0.653556 0.676285 -0.541816
v -0.636639 0.707543 -0.537224
v -0.634837 0.677616 -0.536149
v -0.619391 0.708912 -0.528007
v -0.617589 0.678986 -0.526933
v -0.604279 0.710268 -0.515595
v -0.602476 0.680341 -0.514521
v -0.591881 0.711558 -0.500465
v -0.590079 0.681631 -0.499390
v -0.582675 0.712732 -0.483197
v -0.580873 0.682806 -0.482123
v -0.577015 0.713746 -0.464456
v -0.575213 0.683819 -0.463382
v -0.575118 0.714560 -0.444962
v -0.573316 0.684633 -0.443887
v -0.577057 0.715143 -0.425463
v -0.575255 0.685217 -0.424389
v -0.582758 0.715473 -0.406710
v -0.580956 0.685547 -0.405635
v -0.592001 0.715537 -0.389422
v -0.590198 0.685611 -0.388348
v -0.604431 0.715333 -0.374265
v -0.602629 0.685406 -0.373190
v -0.619571 0.714868 -0.361820
v -0.617768 0.684941 -0.360746
v -0.636838 0.714160 -0.352566
v -0.635036 0.684234 -0.351492
v -0.655570 0.713237 -0.346859
v -0.653767 0.683310 -0.345785
v -0.675045 0.712134 -0.344918
v -0.673243 0.682207 -0.343844
v -0.694517 0.710893 -0.346817
v -0.692715 0.680966 -0.345743
v -0.713236 0.709562 -0.352484
v -0.711434 0.679635 -0.351410
v -0.730484 0.708192 -0.361700
v -0.728682 0.678266 -0.360626
v -0.745597 0.706836 -0.374113
v -0.743794 0.676910 -0.373038
v -0.757994 0.705547 -0.389243
v -0.756192 0.675620 -0.388169
v -0.767200 0.704372 -0.406511
v -0.765398 0.674446 -0.405436
v -0.772860 0.703358 -0.425252
v -0.771058 0.673432 -0.424177
v -0.774757 0.702544 -0.444746
v -0.772955 0.672618 -0.443672
v -0.772818 0.701961 -0.464245
v -0.771016 0.672035 -0.463170
v -0.767117 0.701631 -0.482998
v -0.765315 0.671705 -0.481924
v -0.757875 0.701567 -0.500286
v -0.756072 0.671641 -0.499211
v -0.745444 0.701772 -0.515443
v -0.743642 0.671845 -0.514369
v -0.730305 0.702237 -0.527888
v -0.728502 0.672310 -0.526813
v -0.713037 0.702944 -0.537141
v -0.711235 0.673018 -0.536067
v -0.694306 0.703868 -0.542848
v -0.692503 0.673941 -0.541774
vt 1.000000 1.000000
vt 0.968750 0.500000
vt 1.000000 0.500000
vt 0.968750 1.000000
vt 0.937500 0.500000
vt 0.906250 1.000000
vt 0.906250 0.500000
vt 0.875000 1.000000
vt 0.875000 0.500000
vt 0.843750 0.500000
vt 0.843750 1.000000
vt 0.812500 0.500000
vt 0.812500 1.000000
vt 0.781250 0.500000
vt 0.750000 1.000000
vt 0.750000 0.500000
vt 0.718750 0.500000
vt 0.687500 1.000000
vt 0.687500 0.500000
vt 0.656250 1.000000
vt 0.656250 0.500000
vt 0.625000 0.500000
vt 0.625000 1.000000
vt 0.593750 0.500000
vt 0.593750 1.000000
vt 0.562500 0.500000
vt 0.531250 1.000000
vt 0.531250 0.500000
vt 0.500000 0.500000
vt 0.468750 1.000000
vt 0.468750 0.500000
vt 0.437500 1.000000
vt 0.437500 0.500000
vt 0.406250 1.000000
vt 0.406250 0.500000
vt 0.375000 1.000000
vt 0.375000 0.500000
vt 0.343750 0.500000
vt 0.312500 1.000000
vt 0.312500 0.500000
vt 0.281250 0.500000
vt 0.281250 1.000000
vt 0.250000 0.500000
vt 0.250000 1.000000
vt 0.218750 0.500000
vt 0.218750 1.000000
vt 0.187500 0.500000
vt 0.187500 1.000000
vt 0.156250 0.500000
vt 0.156250 1.000000
vt 0.125000 0.500000
vt 0.093750 1.000000
vt 0.093750 0.500000
vt 0.062500 1.000000
vt 0.062500 0.500000
vt 0.028269 0.341844
vt 0.158156 0.028269
vt 0.471731 0.158156
vt 0.031250 0.500000
vt 0.000000 1.000000
vt 0.000000 0.500000
vt 0.703179 0.485389
vt 0.985388 0.296822
vt 0.796822 0.014612
vt 0.937500 1.000000
vt 0.781250 1.000000
vt 0.718750 1.000000
vt 0.562500 1.000000
vt 0.500000 1.000000
vt 0.343750 1.000000
vt 0.125000 1.000000
vt 0.341844 0.471731
vt 0.296822 0.485388
vt 0.158156 0.471731
vt 0.250000 0.490000
vt 0.203179 0.485389
vt 0.116663 0.449553
vt 0.080295 0.419706
vt 0.050447 0.383337
vt 0.014612 0.296822
vt 0.010000 0.250000
vt 0.014611 0.203179
vt 0.028269 0.158156
vt 0.050447 0.116663
vt 0.080294 0.080294
vt 0.116663 0.050447
vt 0.203178 0.014612
vt 0.250000 0.010000
vt 0.296822 0.014612
vt 0.341844 0.028269
vt 0.383337 0.050447
vt 0.419706 0.080294
vt 0.449553 0.116663
vt 0.485388 0.203178
vt 0.490000 0.250000
vt 0.485388 0.296822
vt 0.471731 0.341844
vt 0.449553 0.383337
vt 0.419706 0.419706
vt 0.383337 0.449553
vt 0.031250 1.000000
vt 0.750000 0.490000
vt 0.796822 0.485388
vt 0.841844 0.471731
vt 0.883337 0.449553
vt 0.919706 0.419706
vt 0.949553 0.383337
vt 0.971731 0.341844
vt 0.990000 0.250000
vt 0.985388 0.203178
vt 0.971731 0.158156
vt 0.949553 0.116663
vt 0.919706 0.080294
vt 0.883337 0.050447
vt 0.841844 0.028269
vt 0.750000 0.010000
vt 0.703178 0.014612
vt 0.658156 0.028269
vt 0.616663 0.050447
vt 0.580294 0.080294
vt 0.550447 0.116663
vt 0.528269 0.158156
vt 0.514611 0.203179
vt 0.510000 0.250000
vt 0.514612 0.296822
vt 0.528269 0.341844
vt 0.550447 0.383337
vt 0.580295 0.419706
vt 0.616663 0.449553
vt 0.658156 0.471731
vn 0.0989 -0.0298 -0.9946
vn 0.0989 -0.0298 -0.9947
vn 0.2908 -0.0168 -0.9566
vn 0.4715 -0.0033 -0.8819
vn 0.6341 0.0104 -0.7732
vn 0.6341 0.0105 -0.7732
vn 0.7723 0.0237 -0.6348
vn 0.8808 0.0361 -0.4721
vn 0.9555 0.0471 -0.2911
vn 0.9935 0.0563 -0.0990
vn 0.9933 0.0633 0.0969
vn 0.9549 0.0679 0.2891
vn 0.8798 0.0699 0.4701
vn 0.7709 0.0692 0.6332
vn 0.6324 0.0658 0.7718
vn 0.4696 0.0599 0.8808
vn 0.2887 0.0517 0.9560
vn 0.0968 0.0415 0.9944
vn -0.0989 0.0297 0.9947
vn -0.2908 0.0168 0.9566
vn -0.4715 0.0033 0.8819
vn -0.6341 -0.0104 0.7732
vn -0.7723 -0.0237 0.6348
vn -0.8808 -0.0361 0.4721
vn -0.9555 -0.0471 0.2911
vn -0.9935 -0.0563 0.0990
vn -0.9933 -0.0633 -0.0969
vn -0.9549 -0.0679 -0.2891
vn -0.8798 -0.0699 -0.4701
vn -0.8798 -0.0699 -0.4702
vn -0.7709 -0.0692 -0.6332
vn -0.7709 -0.0692 -0.6331
vn -0.6324 -0.0658 -0.7718
vn -0.4696 -0.0599 -0.8808
vn -0.4696 -0.0599 -0.8809
vn -0.0601 0.9976 -0.0358
vn -0.2887 -0.0517 -0.9560
vn -0.0968 -0.0415 -0.9944
vn 0.0601 -0.9976 0.0358
vn 0.0989 -0.0297 -0.9946
vn 0.2908 -0.0169 -0.9566
vn 0.8808 0.0361 -0.4720
vn -0.7709 -0.0691 -0.6332
vn -0.0600 0.9976 -0.0356
vn -0.0600 0.9976 -0.0358
vn -0.0602 0.9975 -0.0359
vn -0.0601 0.9975 -0.0358
vn -0.0598 0.9976 -0.0360
vn -0.0601 0.9975 -0.0359
vn -0.0600 0.9976 -0.0357
vn -0.0602 0.9975 -0.0357
vn -0.0599 0.9976 -0.0360
vn 0.0601 -0.9975 0.0359
vn 0.0599 -0.9976 0.0360
vn 0.0604 -0.9975 0.0357
vn 0.0598 -0.9976 0.0358
vn 0.0601 -0.9975 0.0358
vn 0.0600 -0.9976 0.0357
vn 0.0602 -0.9975 0.0361
vn 0.0601 -0.9975 0.0360
vn 0.0601 -0.9976 0.0357
vn 0.0599 -0.9976 0.0359
vn 0.0600 -0.9976 0.0358
vn 0.0600 -0.9976 0.0356
usemtl Material.053
s 1
f 2/1/1 4/2/2 1/3/2
f 3/4/3 6/5/3 4/2/3
f 6/5/4 7/6/4 8/7/4
f 8/7/5 9/8/5 10/9/6
f 9/8/7 12/10/7 10/9/7
f 11/11/8 14/12/8 12/10/8
f 13/13/9 16/14/9 14/12/9
f 16/14/10 17/15/10 18/16/10
f 17/15/11 20/17/11 18/16/11
f 20/17/12 21/18/12 22/19/12
f 22/19/13 23/20/13 24/21/13
f 23/20/14 26/22/14 24/21/14
f 25/23/15 28/24/15 26/22/15
f 27/25/16 30/26/16 28/24/16
f 30/26/17 31/27/17 32/28/17
f 31/27/18 34/29/18 32/28/18
f 34/29/19 35/30/19 36/31/19
f 36/31/20 37/32/20 38/33/20
f 38/33/21 39/34/21 40/35/21
f 40/35/22 41/36/22 42/37/22
f 41/36/23 44/38/23 42/37/23
f 44/38/24 45/39/24 46/40/24
f 45/39/25 48/41/25 46/40/25
f 47/42/26 50/43/26 48/41/26
f 49/44/27 52/45/27 50/43/27
f 51/46/28 54/47/28 52/45/28
f 53/48/29 56/49/29 54/47/30
f 55/50/31 58/51/31 56/49/32
f 58/51/33 59/52/33 60/53/33
f 60/53/34 61/54/35 62/55/34
f 53/56/36 37/57/36 21/58/36
f 61/54/37 64/59/37 62/55/37
f 64/59/38 2/60/38 1/61/38
f 64/62/39 16/63/39 32/64/39
f 2/1/1 3/4/40 4/2/2
f 3/4/3 5/65/41 6/5/3
f 6/5/4 5/65/4 7/6/4
f 8/7/5 7/6/5 9/8/5
f 9/8/7 11/11/7 12/10/7
f 11/11/8 13/13/42 14/12/8
f 13/13/9 15/66/9 16/14/9
f 16/14/10 15/66/10 17/15/10
f 17/15/11 19/67/11 20/17/11
f 20/17/12 19/67/12 21/18/12
f 22/19/13 21/18/13 23/20/13
f 23/20/14 25/23/14 26/22/14
f 25/23/15 27/25/15 28/24/15
f 27/25/16 29/68/16 30/26/16
f 30/26/17 29/68/17 31/27/17
f 31/27/18 33/69/18 34/29/18
f 34/29/19 33/69/19 35/30/19
f 36/31/20 35/30/20 37/32/20
f 38/33/21 37/32/21 39/34/21
f 40/35/22 39/34/22 41/36/22
f 41/36/23 43/70/23 44/38/23
f 44/38/24 43/70/24 45/39/24
f 45/39/25 47/42/25 48/41/25
f 47/42/26 49/44/26 50/43/26
f 49/44/27 51/46/27 52/45/27
f 51/46/28 53/48/28 54/47/28
f 53/48/29 55/50/29 56/49/29
f 55/50/31 57/71/43 58/51/31
f 58/51/33 57/71/33 59/52/33
f 60/53/34 59/52/35 61/54/35
f 5/72/36 3/73/36 61/74/36
f 3/73/36 2/75/36 61/74/36
f 2/75/36 63/76/44 61/74/36
f 61/74/36 59/77/44 57/78/45
f 57/78/45 55/79/46 53/56/36
f 53/56/36 51/80/45 49/81/36
f 49/81/36 47/82/47 53/56/36
f 47/82/47 45/83/36 53/56/36
f 45/83/36 43/84/48 41/85/36
f 41/85/36 39/86/36 37/57/36
f 37/57/36 35/87/49 33/88/49
f 33/88/49 31/89/36 29/90/36
f 29/90/36 27/91/49 25/92/36
f 25/92/36 23/93/50 21/58/36
f 21/58/36 19/94/45 17/95/36
f 17/95/36 15/96/47 21/58/36
f 15/96/47 13/97/36 21/58/36
f 13/97/36 11/98/51 9/99/36
f 9/99/36 7/100/52 5/72/36
f 61/74/36 57/78/45 53/56/36
f 45/83/36 41/85/36 53/56/36
f 41/85/36 37/57/36 53/56/36
f 37/57/36 33/88/49 29/90/36
f 29/90/36 25/92/36 37/57/36
f 25/92/36 21/58/36 37/57/36
f 13/97/36 9/99/36 21/58/36
f 9/99/36 5/72/36 21/58/36
f 5/72/36 61/74/36 53/56/36
f 5/72/36 53/56/36 21/58/36
f 61/54/37 63/101/37 64/59/37
f 64/59/38 63/101/38 2/60/38
f 64/62/39 1/102/53 4/103/39
f 4/103/39 6/104/53 64/62/39
f 6/104/53 8/105/39 64/62/39
f 8/105/39 10/106/54 12/107/39
f 12/107/39 14/108/55 16/63/39
f 16/63/39 18/109/56 20/110/57
f 20/110/57 22/111/57 16/63/39
f 22/111/57 24/112/57 16/63/39
f 24/112/57 26/113/58 28/114/39
f 28/114/39 30/115/59 32/64/39
f 32/64/39 34/116/60 36/117/53
f 36/117/53 38/118/61 32/64/39
f 38/118/61 40/119/39 32/64/39
f 40/119/39 42/120/39 44/121/39
f 44/121/39 46/122/62 48/123/39
f 48/123/39 50/124/57 52/125/63
f 52/125/63 54/126/39 48/123/39
f 54/126/39 56/127/39 48/123/39
f 56/127/39 58/128/53 60/129/57
f 60/129/57 62/130/64 64/62/39
f 8/105/39 12/107/39 64/62/39
f 12/107/39 16/63/39 64/62/39
f 24/112/57 28/114/39 16/63/39
f 28/114/39 32/64/39 16/63/39
f 40/119/39 44/121/39 32/64/39
f 44/121/39 48/123/39 32/64/39
f 56/127/39 60/129/57 64/62/39
f 48/123/39 56/127/39 32/64/39
f 56/127/39 64/62/39 32/64/39
