# Blender v2.82 (sub 7) OBJ File: 'back.blend'
# www.blender.org
mtllib back.mtl
o Cylinder_Cylinder.001
v -0.144356 -0.500000 -0.989526
v -0.144356 0.500000 -0.989526
v 0.116671 -0.500000 -0.993171
v 0.116671 0.500000 -0.993171
v 0.369747 -0.500000 -0.929133
v 0.369747 0.500000 -0.929133
v 0.597625 -0.500000 -0.801776
v 0.597625 0.500000 -0.801776
v 0.784776 -0.500000 -0.619779
v 0.784776 0.500000 -0.619779
v 0.918446 -0.500000 -0.395546
v 0.918446 0.500000 -0.395546
v 0.989526 -0.500000 -0.144356
v 0.989526 0.500000 -0.144356
v 0.993171 -0.500000 0.116671
v 0.993171 0.500000 0.116671
v 0.929133 -0.500000 0.369747
v 0.929133 0.500000 0.369747
v 0.801776 -0.500000 0.597625
v 0.801776 0.500000 0.597625
v 0.619779 -0.500000 0.784776
v 0.619779 0.500000 0.784776
v 0.395546 -0.500000 0.918446
v 0.395546 0.500000 0.918446
v 0.144357 -0.500000 0.989526
v 0.144357 0.500000 0.989526
v -0.116670 -0.500000 0.993171
v -0.116670 0.500000 0.993171
v -0.369746 -0.500000 0.929133
v -0.369746 0.500000 0.929133
v -0.597625 -0.500000 0.801776
v -0.597625 0.500000 0.801776
v -0.784776 -0.500000 0.619779
v -0.784776 0.500000 0.619779
v -0.918446 -0.500000 0.395546
v -0.918446 0.500000 0.395546
v -0.989526 -0.500000 0.144357
v -0.989526 0.500000 0.144357
v -0.993171 -0.500000 -0.116670
v -0.993171 0.500000 -0.116670
v -0.929133 -0.500000 -0.369746
v -0.929133 0.500000 -0.369746
v -0.801776 -0.500000 -0.597625
v -0.801776 0.500000 -0.597625
v -0.619780 -0.500000 -0.784776
v -0.619780 0.500000 -0.784776
v -0.395546 -0.500000 -0.918446
v -0.395546 0.500000 -0.918446
v -0.142913 -0.500000 -0.979631
v -0.142913 0.500000 -0.979631
v 0.115504 -0.500000 -0.983239
v 0.115504 0.500000 -0.983239
v 0.366049 -0.500000 -0.919841
v 0.366049 0.500000 -0.919841
v 0.591649 -0.500000 -0.793758
v 0.591649 0.500000 -0.793758
v 0.776929 -0.500000 -0.613581
v 0.776929 0.500000 -0.613581
v 0.909262 -0.500000 -0.391590
v 0.909262 0.500000 -0.391590
v 0.979631 -0.500000 -0.142913
v 0.979631 0.500000 -0.142913
v 0.983239 -0.500000 0.115504
v 0.983239 0.500000 0.115504
v 0.919841 -0.500000 0.366049
v 0.919841 0.500000 0.366049
v 0.793758 -0.500000 0.591649
v 0.793758 0.500000 0.591649
v 0.613582 -0.500000 0.776928
v 0.613582 0.500000 0.776928
v 0.391591 -0.500000 0.909262
v 0.391591 0.500000 0.909262
v 0.142913 -0.500000 0.979630
v 0.142913 0.500000 0.979630
v -0.115504 -0.500000 0.983239
v -0.115504 0.500000 0.983239
v -0.366049 -0.500000 0.919841
v -0.366049 0.500000 0.919841
v -0.591649 -0.500000 0.793759
v -0.591649 0.500000 0.793759
v -0.776928 -0.500000 0.613582
v -0.776928 0.500000 0.613582
v -0.909262 -0.500000 0.391591
v -0.909262 0.500000 0.391591
v -0.979630 -0.500000 0.142913
v -0.979630 0.500000 0.142913
v -0.983239 -0.500000 -0.115504
v -0.983239 0.500000 -0.115504
v -0.919841 -0.500000 -0.366049
v -0.919841 0.500000 -0.366049
v -0.793759 -0.500000 -0.591649
v -0.793759 0.500000 -0.591649
v -0.613582 -0.500000 -0.776928
v -0.613582 0.500000 -0.776928
v -0.391591 -0.500000 -0.909262
v -0.391591 0.500000 -0.909262
vt 1.000000 1.000000
vt 0.958333 0.500000
vt 1.000000 0.500000
vt 0.958333 1.000000
vt 0.916667 0.500000
vt 0.916667 1.000000
vt 0.875000 0.500000
vt 0.875000 1.000000
vt 0.833333 0.500000
vt 0.833333 1.000000
vt 0.791667 0.500000
vt 0.791667 1.000000
vt 0.750000 0.500000
vt 0.750000 1.000000
vt 0.708333 0.500000
vt 0.708333 1.000000
vt 0.666667 0.500000
vt 0.666667 1.000000
vt 0.625000 0.500000
vt 0.625000 1.000000
vt 0.583333 0.500000
vt 0.583333 1.000000
vt 0.541666 0.500000
vt 0.541666 1.000000
vt 0.500000 0.500000
vt 0.500000 1.000000
vt 0.458333 0.500000
vt 0.458333 1.000000
vt 0.416666 0.500000
vt 0.416666 1.000000
vt 0.375000 0.500000
vt 0.375000 1.000000
vt 0.333333 0.500000
vt 0.333333 1.000000
vt 0.291667 0.500000
vt 0.291667 1.000000
vt 0.250000 0.500000
vt 0.250000 1.000000
vt 0.208333 0.500000
vt 0.208333 1.000000
vt 0.166666 0.500000
vt 0.166666 1.000000
vt 0.125000 0.500000
vt 0.125000 1.000000
vt 0.083333 0.500000
vt 0.083333 1.000000
vt 0.041666 0.500000
vt 0.041666 1.000000
vt -0.000000 0.500000
vt 0.958333 0.500000
vt 1.000000 1.000000
vt 1.000000 0.500000
vt 0.916667 0.500000
vt 0.958333 1.000000
vt 0.875000 0.500000
vt 0.916667 1.000000
vt 0.833333 0.500000
vt 0.875000 1.000000
vt 0.791667 0.500000
vt 0.833333 1.000000
vt 0.750000 0.500000
vt 0.791667 1.000000
vt 0.708333 0.500000
vt 0.750000 1.000000
vt 0.666667 0.500000
vt 0.708333 1.000000
vt 0.625000 0.500000
vt 0.666667 1.000000
vt 0.583333 0.500000
vt 0.625000 1.000000
vt 0.541666 0.500000
vt 0.583333 1.000000
vt 0.500000 0.500000
vt 0.541666 1.000000
vt 0.458333 0.500000
vt 0.500000 1.000000
vt 0.416666 0.500000
vt 0.458333 1.000000
vt 0.375000 0.500000
vt 0.416666 1.000000
vt 0.333333 0.500000
vt 0.375000 1.000000
vt 0.291667 0.500000
vt 0.333333 1.000000
vt 0.250000 0.500000
vt 0.291667 1.000000
vt 0.208333 0.500000
vt 0.250000 1.000000
vt 0.166666 0.500000
vt 0.208333 1.000000
vt 0.125000 0.500000
vt 0.166666 1.000000
vt 0.083333 0.500000
vt 0.125000 1.000000
vt 0.041666 0.500000
vt 0.083333 1.000000
vt -0.000000 0.500000
vt 0.041666 1.000000
vt -0.000000 1.000000
vt -0.000000 1.000000
vn -0.0140 0.0000 -0.9999
vn 0.2453 0.0000 -0.9694
vn 0.4879 0.0000 -0.8729
vn 0.6972 0.0000 -0.7169
vn 0.8590 0.0000 -0.5120
vn 0.9622 0.0000 -0.2723
vn 0.9999 0.0000 -0.0140
vn 0.9694 0.0000 0.2453
vn 0.8729 0.0000 0.4879
vn 0.7169 0.0000 0.6972
vn 0.5120 0.0000 0.8590
vn 0.2723 0.0000 0.9622
vn 0.0140 0.0000 0.9999
vn -0.2453 0.0000 0.9694
vn -0.4879 0.0000 0.8729
vn -0.6972 0.0000 0.7169
vn -0.8590 0.0000 0.5120
vn -0.9622 0.0000 0.2723
vn -0.9999 0.0000 0.0140
vn -0.9694 0.0000 -0.2453
vn -0.8729 0.0000 -0.4879
vn -0.7169 0.0000 -0.6972
vn -0.5120 0.0000 -0.8590
vn -0.2723 0.0000 -0.9622
vn 0.0000 -1.0000 0.0000
vn 0.0000 1.0000 0.0000
usemtl None
s off
f 2/1/1 3/2/1 1/3/1
f 4/4/2 5/5/2 3/2/2
f 6/6/3 7/7/3 5/5/3
f 8/8/4 9/9/4 7/7/4
f 10/10/5 11/11/5 9/9/5
f 12/12/6 13/13/6 11/11/6
f 14/14/7 15/15/7 13/13/7
f 16/16/8 17/17/8 15/15/8
f 18/18/9 19/19/9 17/17/9
f 20/20/10 21/21/10 19/19/10
f 22/22/11 23/23/11 21/21/11
f 24/24/12 25/25/12 23/23/12
f 26/26/13 27/27/13 25/25/13
f 28/28/14 29/29/14 27/27/14
f 30/30/15 31/31/15 29/29/15
f 32/32/16 33/33/16 31/31/16
f 34/34/17 35/35/17 33/33/17
f 36/36/18 37/37/18 35/35/18
f 38/38/19 39/39/19 37/37/19
f 40/40/20 41/41/20 39/39/20
f 42/42/21 43/43/21 41/41/21
f 44/44/22 45/45/22 43/43/22
f 46/46/23 47/47/23 45/45/23
f 48/48/24 1/49/24 47/47/24
f 51/50/13 50/51/13 49/52/13
f 53/53/14 52/54/14 51/50/14
f 55/55/15 54/56/15 53/53/15
f 57/57/16 56/58/16 55/55/16
f 59/59/17 58/60/17 57/57/17
f 61/61/18 60/62/18 59/59/18
f 63/63/19 62/64/19 61/61/19
f 65/65/20 64/66/20 63/63/20
f 67/67/21 66/68/21 65/65/21
f 69/69/22 68/70/22 67/67/22
f 71/71/23 70/72/23 69/69/23
f 73/73/24 72/74/24 71/71/24
f 75/75/1 74/76/1 73/73/1
f 77/77/2 76/78/2 75/75/2
f 79/79/3 78/80/3 77/77/3
f 81/81/4 80/82/4 79/79/4
f 83/83/5 82/84/5 81/81/5
f 85/85/6 84/86/6 83/83/6
f 87/87/7 86/88/7 85/85/7
f 89/89/8 88/90/8 87/87/8
f 91/91/9 90/92/9 89/89/9
f 93/93/10 92/94/10 91/91/10
f 95/95/11 94/96/11 93/93/11
f 49/97/12 96/98/12 95/95/12
f 3/2/25 49/52/25 1/3/25
f 4/4/26 50/51/26 52/54/26
f 5/5/25 51/50/25 3/2/25
f 6/6/26 52/54/26 54/56/26
f 7/7/25 53/53/25 5/5/25
f 8/8/26 54/56/26 56/58/26
f 7/7/25 57/57/25 55/55/25
f 8/8/26 58/60/26 10/10/26
f 9/9/25 59/59/25 57/57/25
f 10/10/26 60/62/26 12/12/26
f 11/11/25 61/61/25 59/59/25
f 12/12/26 62/64/26 14/14/26
f 15/15/25 61/61/25 13/13/25
f 16/16/26 62/64/26 64/66/26
f 17/17/25 63/63/25 15/15/25
f 18/18/26 64/66/26 66/68/26
f 19/19/25 65/65/25 17/17/25
f 20/20/26 66/68/26 68/70/26
f 19/19/25 69/69/25 67/67/25
f 20/20/26 70/72/26 22/22/26
f 21/21/25 71/71/25 69/69/25
f 22/22/26 72/74/26 24/24/26
f 23/23/25 73/73/25 71/71/25
f 24/24/26 74/76/26 26/26/26
f 27/27/25 73/73/25 25/25/25
f 28/28/26 74/76/26 76/78/26
f 29/29/25 75/75/25 27/27/25
f 30/30/26 76/78/26 78/80/26
f 31/31/25 77/77/25 29/29/25
f 32/32/26 78/80/26 80/82/26
f 31/31/25 81/81/25 79/79/25
f 32/32/26 82/84/26 34/34/26
f 33/33/25 83/83/25 81/81/25
f 34/34/26 84/86/26 36/36/26
f 35/35/25 85/85/25 83/83/25
f 36/36/26 86/88/26 38/38/26
f 39/39/25 85/85/25 37/37/25
f 40/40/26 86/88/26 88/90/26
f 41/41/25 87/87/25 39/39/25
f 42/42/26 88/90/26 90/92/26
f 43/43/25 89/89/25 41/41/25
f 44/44/26 90/92/26 92/94/26
f 43/43/25 93/93/25 91/91/25
f 44/44/26 94/96/26 46/46/26
f 45/45/25 95/95/25 93/93/25
f 46/46/26 96/98/26 48/48/26
f 47/47/25 49/97/25 95/95/25
f 48/48/26 50/99/26 2/100/26
f 2/1/1 4/4/1 3/2/1
f 4/4/2 6/6/2 5/5/2
f 6/6/3 8/8/3 7/7/3
f 8/8/4 10/10/4 9/9/4
f 10/10/5 12/12/5 11/11/5
f 12/12/6 14/14/6 13/13/6
f 14/14/7 16/16/7 15/15/7
f 16/16/8 18/18/8 17/17/8
f 18/18/9 20/20/9 19/19/9
f 20/20/10 22/22/10 21/21/10
f 22/22/11 24/24/11 23/23/11
f 24/24/12 26/26/12 25/25/12
f 26/26/13 28/28/13 27/27/13
f 28/28/14 30/30/14 29/29/14
f 30/30/15 32/32/15 31/31/15
f 32/32/16 34/34/16 33/33/16
f 34/34/17 36/36/17 35/35/17
f 36/36/18 38/38/18 37/37/18
f 38/38/19 40/40/19 39/39/19
f 40/40/20 42/42/20 41/41/20
f 42/42/21 44/44/21 43/43/21
f 44/44/22 46/46/22 45/45/22
f 46/46/23 48/48/23 47/47/23
f 48/48/24 2/100/24 1/49/24
f 51/50/13 52/54/13 50/51/13
f 53/53/14 54/56/14 52/54/14
f 55/55/15 56/58/15 54/56/15
f 57/57/16 58/60/16 56/58/16
f 59/59/17 60/62/17 58/60/17
f 61/61/18 62/64/18 60/62/18
f 63/63/19 64/66/19 62/64/19
f 65/65/20 66/68/20 64/66/20
f 67/67/21 68/70/21 66/68/21
f 69/69/22 70/72/22 68/70/22
f 71/71/23 72/74/23 70/72/23
f 73/73/24 74/76/24 72/74/24
f 75/75/1 76/78/1 74/76/1
f 77/77/2 78/80/2 76/78/2
f 79/79/3 80/82/3 78/80/3
f 81/81/4 82/84/4 80/82/4
f 83/83/5 84/86/5 82/84/5
f 85/85/6 86/88/6 84/86/6
f 87/87/7 88/90/7 86/88/7
f 89/89/8 90/92/8 88/90/8
f 91/91/9 92/94/9 90/92/9
f 93/93/10 94/96/10 92/94/10
f 95/95/11 96/98/11 94/96/11
f 49/97/12 50/99/12 96/98/12
f 3/2/25 51/50/25 49/52/25
f 4/4/26 2/1/26 50/51/26
f 5/5/25 53/53/25 51/50/25
f 6/6/26 4/4/26 52/54/26
f 7/7/25 55/55/25 53/53/25
f 8/8/26 6/6/26 54/56/26
f 7/7/25 9/9/25 57/57/25
f 8/8/26 56/58/26 58/60/26
f 9/9/25 11/11/25 59/59/25
f 10/10/26 58/60/26 60/62/26
f 11/11/25 13/13/25 61/61/25
f 12/12/26 60/62/26 62/64/26
f 15/15/25 63/63/25 61/61/25
f 16/16/26 14/14/26 62/64/26
f 17/17/25 65/65/25 63/63/25
f 18/18/26 16/16/26 64/66/26
f 19/19/25 67/67/25 65/65/25
f 20/20/26 18/18/26 66/68/26
f 19/19/25 21/21/25 69/69/25
f 20/20/26 68/70/26 70/72/26
f 21/21/25 23/23/25 71/71/25
f 22/22/26 70/72/26 72/74/26
f 23/23/25 25/25/25 73/73/25
f 24/24/26 72/74/26 74/76/26
f 27/27/25 75/75/25 73/73/25
f 28/28/26 26/26/26 74/76/26
f 29/29/25 77/77/25 75/75/25
f 30/30/26 28/28/26 76/78/26
f 31/31/25 79/79/25 77/77/25
f 32/32/26 30/30/26 78/80/26
f 31/31/25 33/33/25 81/81/25
f 32/32/26 80/82/26 82/84/26
f 33/33/25 35/35/25 83/83/25
f 34/34/26 82/84/26 84/86/26
f 35/35/25 37/37/25 85/85/25
f 36/36/26 84/86/26 86/88/26
f 39/39/25 87/87/25 85/85/25
f 40/40/26 38/38/26 86/88/26
f 41/41/25 89/89/25 87/87/25
f 42/42/26 40/40/26 88/90/26
f 43/43/25 91/91/25 89/89/25
f 44/44/26 42/42/26 90/92/26
f 43/43/25 45/45/25 93/93/25
f 44/44/26 92/94/26 94/96/26
f 45/45/25 47/47/25 95/95/25
f 46/46/26 94/96/26 96/98/26
f 47/47/25 1/49/25 49/97/25
f 48/48/26 96/98/26 50/99/26
